<svg width="120" height="45" viewBox="0 0 358 89" fill="none" xmlns="http://www.w3.org/2000/svg">
<g filter="url(#filter0_d_241_11667)">
<path d="M29.9726 27.4207C35.1 27.4207 39.4999 28.3215 43.1722 30.123C46.8446 31.9245 49.7028 34.4536 51.7468 37.7102C53.8255 40.9668 55.0034 44.7777 55.2806 49.1429L39.8983 49.4547C39.5519 46.1981 38.4432 43.825 36.5724 42.3352C34.7016 40.8455 32.4843 40.1007 29.9206 40.1007C26.5947 40.1007 23.9271 41.3652 21.9177 43.8943C19.9429 46.3887 18.9556 50.5287 18.9556 56.3144C18.9556 62.1693 19.9429 66.3787 21.9177 68.9424C23.9271 71.5061 26.5947 72.7879 29.9206 72.7879C32.4843 72.7879 34.7016 72.0431 36.5724 70.5534C38.4432 69.0636 39.5519 66.6905 39.8983 63.4339L55.2806 63.6937C55.0034 68.0589 53.8255 71.8872 51.7468 75.1784C49.7028 78.435 46.8446 80.9814 43.1722 82.8176C39.4999 84.6191 35.1 85.5199 29.9726 85.5199C23.9791 85.5199 18.9729 84.3246 14.9541 81.9342C10.97 79.5437 7.97319 76.1658 5.9638 71.8006C3.9544 67.4353 2.94971 62.3079 2.94971 56.4183C2.94971 50.5287 3.9544 45.4186 5.9638 41.088C7.97319 36.7228 10.97 33.3623 14.9541 31.0064C18.9729 28.6159 23.9791 27.4207 29.9726 27.4207Z" fill="url(#paint0_linear_241_11667)"></path>
<path d="M91.2937 27.4207C96.4212 27.4207 100.821 28.3215 104.493 30.123C108.166 31.9245 111.024 34.4536 113.068 37.7102C115.147 40.9668 116.325 44.7777 116.602 49.1429L101.219 49.4547C100.873 46.1981 99.7644 43.825 97.8936 42.3352C96.0227 40.8455 93.8055 40.1007 91.2418 40.1007C87.9159 40.1007 85.2482 41.3652 83.2388 43.8943C81.2641 46.3887 80.2767 50.5287 80.2767 56.3144C80.2767 62.1693 81.2641 66.3787 83.2388 68.9424C85.2482 71.5061 87.9159 72.7879 91.2418 72.7879C93.8055 72.7879 96.0227 72.0431 97.8936 70.5534C99.7644 69.0636 100.873 66.6905 101.219 63.4339L116.602 63.6937C116.325 68.0589 115.147 71.8872 113.068 75.1784C111.024 78.435 108.166 80.9814 104.493 82.8176C100.821 84.6191 96.4212 85.5199 91.2937 85.5199C85.3002 85.5199 80.294 84.3246 76.2753 81.9342C72.2911 79.5437 69.2943 76.1658 67.285 71.8006C65.2756 67.4353 64.2709 62.3079 64.2709 56.4183C64.2709 50.5287 65.2756 45.4186 67.285 41.088C69.2943 36.7228 72.2911 33.3623 76.2753 31.0064C80.294 28.6159 85.3002 27.4207 91.2937 27.4207Z" fill="url(#paint1_linear_241_11667)"></path>
<path d="M152.615 27.4207C157.742 27.4207 162.142 28.3215 165.815 30.123C169.487 31.9245 172.345 34.4536 174.389 37.7102C176.468 40.9668 177.646 44.7777 177.923 49.1429L162.541 49.4547C162.194 46.1981 161.086 43.825 159.215 42.3352C157.344 40.8455 155.127 40.1007 152.563 40.1007C149.237 40.1007 146.569 41.3652 144.56 43.8943C142.585 46.3887 141.598 50.5287 141.598 56.3144C141.598 62.1693 142.585 66.3787 144.56 68.9424C146.569 71.5061 149.237 72.7879 152.563 72.7879C155.127 72.7879 157.344 72.0431 159.215 70.5534C161.086 69.0636 162.194 66.6905 162.541 63.4339L177.923 63.6937C177.646 68.0589 176.468 71.8872 174.389 75.1784C172.345 78.435 169.487 80.9814 165.815 82.8176C162.142 84.6191 157.742 85.5199 152.615 85.5199C146.621 85.5199 141.615 84.3246 137.596 81.9342C133.612 79.5437 130.615 76.1658 128.606 71.8006C126.597 67.4353 125.592 62.3079 125.592 56.4183C125.592 50.5287 126.597 45.4186 128.606 41.088C130.615 36.7228 133.612 33.3623 137.596 31.0064C141.615 28.6159 146.621 27.4207 152.615 27.4207Z" fill="url(#paint2_linear_241_11667)"></path>
<path d="M223.082 27.8884H241.479L222.407 57.2498L241.479 85.0002H223.082L212.481 68.6825L201.984 85.0002H183.483L202.607 57.2498L183.483 27.8884H201.932L212.481 45.817L223.082 27.8884Z" fill="url(#paint3_linear_241_11667)"></path>
<path d="M249.274 77.1012C249.274 74.7454 250.122 72.7879 251.82 71.2289C253.518 69.6353 255.544 68.8384 257.9 68.8384C260.221 68.8384 262.213 69.6353 263.876 71.2289C265.574 72.7879 266.423 74.7454 266.423 77.1012C266.423 79.4224 265.574 81.4145 263.876 83.0774C262.213 84.7404 260.221 85.5718 257.9 85.5718C255.544 85.5718 253.518 84.7404 251.82 83.0774C250.122 81.4145 249.274 79.4224 249.274 77.1012Z" fill="url(#paint4_linear_241_11667)"></path>
<path d="M302.488 27.3687C307.893 27.3687 312.396 28.1829 315.999 29.8112C319.602 31.4395 322.305 33.726 324.106 36.6708C325.908 39.581 326.809 42.9588 326.809 46.8044V69.9817C326.809 71.7486 327.155 73.0824 327.848 73.9832C328.575 74.884 329.892 75.3343 331.797 75.3343V85.0522C327.917 85.6411 324.383 85.5372 321.196 84.7404C318.043 83.9436 315.532 82.3499 313.661 79.9594C311.79 77.5343 310.855 74.1737 310.855 69.8778V46.8044C310.855 44.4139 310.092 42.647 308.568 41.5038C307.044 40.3605 304.774 39.7889 301.76 39.7889C298.746 39.7889 296.46 40.3432 294.901 41.4518C293.376 42.5604 292.614 44.3446 292.614 46.8044H278.999C278.756 42.7856 279.484 39.3385 281.181 36.463C282.914 33.5528 285.564 31.3182 289.132 29.7592C292.701 28.1656 297.153 27.3687 302.488 27.3687ZM316.311 68.5266C315.584 70.8478 314.631 73.0478 313.453 75.1265C312.275 77.1705 310.803 78.9894 309.036 80.583C307.304 82.142 305.208 83.3719 302.748 84.2727C300.323 85.1388 297.464 85.5718 294.173 85.5718C289.15 85.5718 285.148 84.2034 282.169 81.4664C279.224 78.6949 277.752 74.8493 277.752 69.9298C277.752 65.7031 278.826 62.1693 280.974 59.3285C283.156 56.4876 286.014 54.357 289.548 52.9365C293.082 51.4814 296.875 50.7539 300.929 50.7539C304.012 50.7539 306.836 50.9964 309.4 51.4814C311.998 51.9665 314.51 52.5554 316.935 53.2483L311.842 61.4591C310.526 61.1127 309.157 60.8702 307.737 60.7316C306.351 60.593 304.913 60.5237 303.423 60.5237C299.994 60.5237 297.205 61.13 295.057 62.3426C292.909 63.5551 291.835 65.2874 291.835 67.5393C291.835 69.3408 292.424 70.7786 293.602 71.8525C294.814 72.8919 296.65 73.4116 299.11 73.4116C300.634 73.4116 302.038 73.221 303.319 72.8399C304.601 72.4242 305.745 71.9218 306.749 71.3329C307.789 70.7093 308.689 70.051 309.452 69.3581C310.214 68.6652 310.837 68.0416 311.322 67.4873L316.311 68.5266Z" fill="url(#paint5_linear_241_11667)"></path>
<path d="M338.397 10.2716C338.397 7.91571 339.246 5.95829 340.944 4.39927C342.641 2.80562 344.668 2.00879 347.024 2.00879C349.345 2.00879 351.337 2.80562 353 4.39927C354.698 5.95829 355.546 7.91571 355.546 10.2716C355.546 12.5928 354.698 14.5848 353 16.2478C351.337 17.9107 349.345 18.7422 347.024 18.7422C344.668 18.7422 342.641 17.9107 340.944 16.2478C339.246 14.5848 338.397 12.5928 338.397 10.2716ZM338.969 27.8884H354.975V85.0002H338.969V27.8884Z" fill="url(#paint6_linear_241_11667)"></path>
</g>
<defs>
<filter id="filter0_d_241_11667" x="0.549707" y="0.608789" width="357.397" height="88.3635" filterUnits="userSpaceOnUse" color-interpolation-filters="sRGB">
<feFlood flood-opacity="0" result="BackgroundImageFix"></feFlood>
<feColorMatrix in="SourceAlpha" type="matrix" values="0 0 0 0 0 0 0 0 0 0 0 0 0 0 0 0 0 0 127 0" result="hardAlpha"></feColorMatrix>
<feOffset dy="1"></feOffset>
<feGaussianBlur stdDeviation="1.2"></feGaussianBlur>
<feComposite in2="hardAlpha" operator="out"></feComposite>
<feColorMatrix type="matrix" values="0 0 0 0 0 0 0 0 0 0 0 0 0 0 0 0 0 0 0.46 0"></feColorMatrix>
<feBlend mode="normal" in2="BackgroundImageFix" result="effect1_dropShadow_241_11667"></feBlend>
<feBlend mode="normal" in="SourceGraphic" in2="effect1_dropShadow_241_11667" result="shape"></feBlend>
</filter>
<linearGradient id="paint0_linear_241_11667" x1="-1" y1="53.5" x2="371.5" y2="53.5" gradientUnits="userSpaceOnUse">
<stop stop-color="#2563EB"></stop>
<stop offset="0.360577" stop-color="#06B6D4"></stop>
<stop offset="0.682692" stop-color="#06B6D4"></stop>
<stop offset="1" stop-color="#34D399"></stop>
</linearGradient>
<linearGradient id="paint1_linear_241_11667" x1="-1" y1="53.5" x2="371.5" y2="53.5" gradientUnits="userSpaceOnUse">
<stop stop-color="#2563EB"></stop>
<stop offset="0.360577" stop-color="#06B6D4"></stop>
<stop offset="0.682692" stop-color="#06B6D4"></stop>
<stop offset="1" stop-color="#34D399"></stop>
</linearGradient>
<linearGradient id="paint2_linear_241_11667" x1="-1" y1="53.5" x2="371.5" y2="53.5" gradientUnits="userSpaceOnUse">
<stop stop-color="#2563EB"></stop>
<stop offset="0.360577" stop-color="#06B6D4"></stop>
<stop offset="0.682692" stop-color="#06B6D4"></stop>
<stop offset="1" stop-color="#34D399"></stop>
</linearGradient>
<linearGradient id="paint3_linear_241_11667" x1="-1" y1="53.5" x2="371.5" y2="53.5" gradientUnits="userSpaceOnUse">
<stop stop-color="#2563EB"></stop>
<stop offset="0.360577" stop-color="#06B6D4"></stop>
<stop offset="0.682692" stop-color="#06B6D4"></stop>
<stop offset="1" stop-color="#34D399"></stop>
</linearGradient>
<linearGradient id="paint4_linear_241_11667" x1="-1" y1="53.5" x2="371.5" y2="53.5" gradientUnits="userSpaceOnUse">
<stop stop-color="#2563EB"></stop>
<stop offset="0.360577" stop-color="#06B6D4"></stop>
<stop offset="0.682692" stop-color="#06B6D4"></stop>
<stop offset="1" stop-color="#34D399"></stop>
</linearGradient>
<linearGradient id="paint5_linear_241_11667" x1="-1" y1="53.5" x2="371.5" y2="53.5" gradientUnits="userSpaceOnUse">
<stop stop-color="#2563EB"></stop>
<stop offset="0.360577" stop-color="#06B6D4"></stop>
<stop offset="0.682692" stop-color="#06B6D4"></stop>
<stop offset="1" stop-color="#34D399"></stop>
</linearGradient>
<linearGradient id="paint6_linear_241_11667" x1="-1" y1="53.5" x2="371.5" y2="53.5" gradientUnits="userSpaceOnUse">
<stop stop-color="#2563EB"></stop>
<stop offset="0.360577" stop-color="#06B6D4"></stop>
<stop offset="0.682692" stop-color="#06B6D4"></stop>
<stop offset="1" stop-color="#34D399"></stop>
</linearGradient>
</defs>
</svg>